<?xml version="1.0" encoding="utf-8"?>
<!-- Generator: Adobe Illustrator 26.0.3, SVG Export Plug-In . SVG Version: 6.00 Build 0)  -->
<svg version="1.1" xmlns="http://www.w3.org/2000/svg" xmlns:xlink="http://www.w3.org/1999/xlink" x="0px" y="0px"
	 viewBox="0 0 1306 411" style="enable-background:new 0 0 1306 411;" xml:space="preserve">
<style type="text/css">
	.st0{fill:#FFFFFF;}
	.st1{fill:none;stroke:#FFFFFF;stroke-width:11;stroke-miterlimit:10;}
	.st2{fill:#FDBB2E;}
	.st3{fill:#101010;}
</style>
<g id="Layer_2">
</g>
<g id="Layer_1">
	<g>
		<g>
			<g>
				<path class="st0" d="M369.4,39.9c-57.2-17.4-121.9-3.5-167.2,41.8s-59.2,110-41.8,167.2c57.2,17.4,121.9,3.5,167.2-41.8
					S386.8,97.2,369.4,39.9z M268.1,141.3c-15.5-15.5-15.5-40.5,0-56c15.5-15.5,40.5-15.5,56,0c15.5,15.5,15.5,40.5,0,56
					C308.6,156.7,283.5,156.7,268.1,141.3z"/>
				<polygon class="st0" points="286.5,260.4 248.6,262.9 229.3,316.4 203.1,265.9 165.3,268.4 213.3,360.9 251.1,358.4 				"/>
				<polygon class="st0" points="149,122.9 146.5,160.7 92.9,180 143.4,206.2 140.9,244.1 48.4,196.1 50.9,158.2 				"/>
				
					<rect x="73.4" y="288.5" transform="matrix(0.7071 -0.7071 0.7071 0.7071 -175.7162 167.0002)" class="st0" width="80.7" height="14.3"/>
				<path class="st0" d="M57.3,352.1c-9.1-9.1-9.1-23.9,0-33c9.1-9.1,23.9-9.1,33,0c9.1,9.1,9.1,23.9,0,33
					C81.2,361.1,66.4,361.1,57.3,352.1z M80.2,329.2c-3.5-3.5-9.3-3.5-12.8,0c-3.5,3.5-3.5,9.3,0,12.8c3.5,3.5,9.3,3.5,12.8,0
					C83.7,338.4,83.7,332.7,80.2,329.2z"/>
				<path class="st0" d="M117.2,371.5c-4.2-4.2-6.8-10-6.8-16.5l0,0c0-12.9,10.5-23.3,23.3-23.3c12.9,0,23.3,10.5,23.3,23.3
					c0,12.9-10.5,23.3-23.3,23.3C127.2,378.3,121.4,375.7,117.2,371.5z M124.6,355c0,5,4.1,9,9,9c5,0,9-4.1,9-9c0-5-4.1-9-9-9
					C128.7,346,124.6,350,124.6,355L124.6,355z"/>
				<polygon class="st0" points="126.5,338.8 126.5,310.7 146.5,290.8 156.6,300.9 140.8,316.6 140.8,338.8 				"/>
				<path class="st0" d="M37.9,292.1c-4.2-4.2-6.8-10-6.8-16.5c0-12.9,10.5-23.3,23.3-23.3c12.9,0,23.3,10.5,23.3,23.3
					c0,12.9-10.5,23.3-23.3,23.3h0C47.9,299,42.1,296.4,37.9,292.1z M60.7,269.3c-1.6-1.6-3.9-2.7-6.4-2.7c-5,0-9,4.1-9,9
					c0,5,4.1,9,9,9c5,0,9-4.1,9-9C63.4,273.2,62.4,270.9,60.7,269.3z"/>
				<polygon class="st0" points="70.5,282.8 70.5,268.5 92.7,268.5 108.5,252.8 118.6,262.9 98.6,282.8 				"/>
			</g>
		</g>
		<g>
			<path class="st0" d="M519.4,130.7v147.8h-9.3v-15.8c-3.5,5.2-8.3,9.4-14.4,12.5c-6.1,3.2-12.7,4.8-19.8,4.8
				c-7.1,0-13.7-1.7-19.5-5.2c-5.9-3.4-10.5-8.2-13.9-14.4c-3.4-6.2-5.1-13-5.1-20.5c0-7.9,1.8-14.9,5.3-21
				c3.5-6.1,8.2-10.8,14.2-14c6-3.2,12.6-4.9,20-4.9c6.6,0,13,1.6,19.2,4.9c6.2,3.2,10.9,7.5,14.3,12.8v-87.1H519.4z M500.2,264
				c6-5.4,9.3-12.3,9.9-20.6v-9.7c-1.4-7.4-5.2-13.5-11.2-18.5c-6-4.9-12.9-7.4-20.7-7.4c-5.8,0-11.2,1.4-16,4.1
				c-4.8,2.7-8.6,6.5-11.5,11.4c-2.9,4.9-4.3,10.4-4.3,16.6c0,5.8,1.4,11.2,4.3,16.1c2.9,4.9,6.7,8.9,11.6,11.8s10.1,4.4,15.9,4.4
				C486.9,272.1,494.2,269.4,500.2,264z"/>
			<path class="st0" d="M595.7,263.8l4.7,6.6c-3.8,3-8,5.3-12.7,7.1c-4.7,1.8-9.5,2.6-14.3,2.6c-7.8,0-14.8-1.8-20.9-5.3
				c-6.2-3.5-11-8.3-14.4-14.3c-3.4-6-5.2-12.8-5.2-20.3c0-7.3,1.8-14,5.4-20.1c3.6-6.2,8.6-11.1,14.8-14.7c6.2-3.6,13-5.4,20.4-5.4
				c8.8,0,16.3,2.6,22.6,7.8c6.2,5.2,10.8,12.2,13.6,21l-65,25.1c2.5,5.4,6.3,9.9,11.4,13.2c5.1,3.4,10.9,5.1,17.4,5.1
				C581.7,272.1,589.1,269.3,595.7,263.8z M557.2,212c-4.8,2.9-8.6,6.7-11.3,11.6c-2.7,4.9-4.1,10.3-4.1,16.2c0,2.7,0.3,5.1,0.8,7.2
				l56-22c-2.5-5.2-5.9-9.4-10.3-12.5c-4.4-3.2-9.5-4.8-15.4-4.8C567.2,207.7,562,209.2,557.2,212z"/>
			<path class="st0" d="M692.1,202.5l-37.7,79h-1.2l-38.5-79h10.7l28.8,62.6l27.8-62.6H692.1z"/>
			<path class="st0" d="M713.2,170.8c6.5-11.3,15.4-20.3,26.7-26.9c11.2-6.7,23.4-10,36.5-10c13.1,0,25.3,3.3,36.5,10
				c11.2,6.7,20.2,15.7,26.8,26.9c6.7,11.3,10,23.4,10,36.4c0,13.2-3.3,25.4-10,36.6c-6.7,11.2-15.6,20-26.8,26.6
				c-11.2,6.5-23.4,9.8-36.5,9.8c-13.2,0-25.4-3.3-36.6-9.8c-11.2-6.5-20-15.4-26.6-26.6c-6.5-11.2-9.8-23.3-9.8-36.6
				C703.4,194.2,706.7,182.1,713.2,170.8z M738.5,230.1c4,7,9.3,12.5,16.1,16.6c6.8,4.1,14.4,6.1,22.7,6.1c8,0,15.4-2,22-6.1
				c6.6-4.1,11.8-9.6,15.6-16.5c3.8-6.9,5.6-14.6,5.6-23.1c0-8.6-1.9-16.3-5.8-23.3c-3.9-7-9.2-12.5-15.9-16.6
				c-6.7-4.1-14.1-6.1-22.3-6.1c-8.2,0-15.6,2-22.3,6.1c-6.7,4.1-12,9.6-15.9,16.6c-3.9,7-5.8,14.8-5.8,23.3
				C732.6,215.5,734.6,223.1,738.5,230.1z"/>
			<path class="st0" d="M1013,129.5v149h-28.2v-68.3l-46.7,66.3h-0.4l-44.9-62.1v64h-27.2v-149h0.2l72.6,102.9l74.3-102.9H1013z"/>
			<path class="st0" d="M1109.8,250.5h-47.5l-11.7,28h-27.8l64.6-148.8h1.6l64.6,148.8h-32.7L1109.8,250.5z M1100.5,226.8
				l-13.8-34.8l-14.4,34.8H1100.5z"/>
			<path class="st0" d="M1242.1,278.5l-30.2-45.5h-18.9v45.5h-28.2V135.4h43.4c17.8,0,31.5,4.3,41.3,12.9
				c9.8,8.6,14.7,20.4,14.7,35.3c0,8.8-1.8,17.1-5.5,24.8c-3.7,7.7-9.4,13.8-17,18.2l33.3,51.9H1242.1z M1193.1,205.8h20
				c7.7,0,13.2-2.2,16.7-6.7c3.5-4.5,5.3-9.3,5.3-14.5c0-5.2-1.5-10.1-4.5-14.9c-3-4.7-8.8-7.1-17.3-7.1h-20.2V205.8z"/>
		</g>
	</g>
</g>
</svg>
